<?xml version="1.0" encoding="utf-8"?>
<!-- Generator: Adobe Illustrator 27.7.0, SVG Export Plug-In . SVG Version: 6.00 Build 0)  -->
<svg version="1.1" id="Capa_1" xmlns="http://www.w3.org/2000/svg" xmlns:xlink="http://www.w3.org/1999/xlink" x="0px" y="0px"
	 viewBox="0 0 14 14" style="enable-background:new 0 0 14 14;" xml:space="preserve">
<style type="text/css">
	.st0{fill:#FFFFFF;}
	.st1{fill:none;stroke:#000000;stroke-miterlimit:10;}
	.st2{fill:none;}
</style>
<g>
	<polygon class="st0" points="0,9 1,9 1,10.1 2,10.1 2,9 11.9,9 11.9,10.1 12.9,10.1 12.9,9 13.9,9 13.9,8 0,8 	"/>
	<path class="st0" d="M10.2,5C9.4,5.5,8.6,6,7,6C5.4,6,4.6,5.5,3.8,5C2.9,4.5,1.9,3.9,0,3.9v1c1.6,0,2.4,0.5,3.2,1
		C4.2,6.4,5.1,7,7,7s2.8-0.6,3.7-1.1c0.8-0.5,1.6-1,3.2-1v-1C12.1,3.9,11.1,4.5,10.2,5z"/>
	<polygon class="st0" points="8.5,3.8 8.5,3.8 7.7,3.8 7.7,2.6 8.5,2.6 8.5,2.6 7.2,1.8 5.9,2.6 5.9,2.6 6.7,2.6 6.7,3.8 5.9,3.8 
		5.9,3.8 7.2,4.7 	"/>
</g>
</svg>
