<?xml version="1.0" encoding="utf-8"?>
<!-- Generator: Adobe Illustrator 27.7.0, SVG Export Plug-In . SVG Version: 6.00 Build 0)  -->
<svg version="1.1" id="Capa_1" xmlns="http://www.w3.org/2000/svg" xmlns:xlink="http://www.w3.org/1999/xlink" x="0px" y="0px"
	 viewBox="0 0 325.5 390.3" style="enable-background:new 0 0 325.5 390.3;" xml:space="preserve">
<style type="text/css">
	.st0{fill:#FFFFFF;}
</style>
<g>
	<path class="st0" d="M253.8,8.4V0h-11v8.4H60.3v199.8v7.1v169h5v6h7.1v-6h175.8v6h7.1v-6h9.9v-169v-7.1V8.4H253.8z M177.9,71.1
		V58.7h0c-0.3-8.1-7-14.7-15.2-14.7c-8.4,0-15.2,6.8-15.2,15.2V77h-10.7V59.3h0c-0.4-8.1-7.1-14.6-15.3-14.6s-15,6.5-15.3,14.6h0
		v11.8h-7.4V77H83.3V36.1h118.1V77h-15.7v-5.9H177.9z M163.5,71.1V77h-8.9V59.3c0-4.5,3.6-8.1,8.1-8.1s8.1,3.6,8.1,8.1v11.8H163.5z
		 M170.6,78.2h8v7.4l-1.6,3.2h-4.8l-1.6-3.2V78.2z M113.1,71.1V59.9c0-4.5,3.7-8.1,8.3-8.1s8.3,3.6,8.3,8.1V77h-8.8v-5.9H113.1z
		 M113.7,78.2v7.4l-1.6,3.2h-4.8l-1.6-3.2v-7.4H113.7z M201.5,29H83.3V15.5h118.1V29z M83.3,84.1h15.3v3.2l4.3,8.6h13.6l4.3-8.6
		v-3.2h42.6v3.2l4.3,8.6h13.6l4.3-8.6v-3.2h15.7v124.1H181v-13h5.3V188H181v-4.7h5.3v-7.1H181v-18.8h-7.1v18.8h-63.5v-18.8h-7.1
		v18.8H98v7.1h5.3v4.7H98v7.1h5.3v13h-20V84.1z M173.9,195.2v13h-63.5v-13H173.9z M110.4,188v-4.7h63.5v4.7H110.4z M201.6,215.3
		l-4.8,113.4l-9,17.2H96l-9-17.1l-3.7-113.5H201.6z M208.6,15.5h8.3v192.7h-7.8h-0.5V15.5z M67.4,15.5h8.8v192.7h-0.3h-8.5V15.5z
		 M76.2,215.3l3.8,115.3l11.8,22.4h100.4l11.8-22.4l4.9-115.3h8.1v161.9H67.4V215.3H76.2z M258,377.2H224V215.3H258V377.2z
		 M224,208.2V15.5H258v192.7H224z"/>
	<path class="st0" d="M229.5,97.6h25.3V58.9h-25.3V97.6z M236.6,66h11v24.6h-11V66z"/>
	<rect x="244.7" y="106.8" class="st0" width="7.1" height="8.6"/>
	<polygon class="st0" points="244.7,119.3 244.7,126.4 248.3,126.4 251.8,126.4 251.8,119.2 	"/>
	<polygon class="st0" points="244.7,165.2 244.7,172.4 248.3,172.4 251.8,172.3 251.8,165.2 	"/>
	<polygon class="st0" points="244.7,176.3 244.7,183.5 248.3,183.5 251.8,183.5 251.8,176.3 	"/>
</g>
</svg>
