<?xml version="1.0" encoding="utf-8"?>
<!-- Generator: Adobe Illustrator 27.7.0, SVG Export Plug-In . SVG Version: 6.00 Build 0)  -->
<svg version="1.1" id="Capa_1" xmlns="http://www.w3.org/2000/svg" xmlns:xlink="http://www.w3.org/1999/xlink" x="0px" y="0px"
	 viewBox="0 0 14 14" style="enable-background:new 0 0 14 14;" xml:space="preserve">
<style type="text/css">
	.st0{fill:#FFFFFF;}
	.st1{fill:none;stroke:#000000;stroke-miterlimit:10;}
	.st2{fill:none;}
</style>
<g>
	<path class="st0" d="M12.3,4.3l0.5-0.5l-0.7-0.7l-0.7,0.7c-0.4-0.2-0.8-0.3-1.3-0.4V2.9h0.4v-1H8.8v1h0.4v0.5
		C7.1,3.7,5.6,5.3,5.6,7.5c0,2.3,1.8,4.1,4.1,4.1s4.1-1.8,4.1-4.1C13.8,6.2,13.2,5.1,12.3,4.3z M9.7,10.6c-1.7,0-3.1-1.4-3.1-3.1
		s1.4-3.1,3.1-3.1s3.1,1.4,3.1,3.1S11.4,10.6,9.7,10.6z"/>
	<polygon class="st0" points="10.2,5.1 9.2,5.1 9.2,8 11.5,8 11.5,7 10.2,7 	"/>
	<rect x="1.5" y="5.2" class="st0" width="3.6" height="1"/>
	<rect x="1.5" y="8.8" class="st0" width="3.6" height="1"/>
	<rect x="0.3" y="7" class="st0" width="4.2" height="1"/>
</g>
</svg>
