<?xml version="1.0" standalone="no"?>
<!DOCTYPE svg PUBLIC "-//W3C//DTD SVG 20010904//EN"
 "http://www.w3.org/TR/2001/REC-SVG-20010904/DTD/svg10.dtd">
<svg version="1.0" xmlns="http://www.w3.org/2000/svg"
 width="201.000000pt" height="201.000000pt" viewBox="0 0 201.000000 201.000000"
 preserveAspectRatio="xMidYMid meet">

<g transform="translate(0.000000,201.000000) scale(0.100000,-0.100000)"
fill="#000000" stroke="none">
<path d="M828 1831 c-74 -24 -116 -51 -168 -107 -67 -73 -113 -193 -122 -319
l-3 -40 121 -3 122 -3 7 58 c9 74 28 120 68 161 89 92 268 53 308 -67 17 -50
15 -149 -5 -208 -9 -28 -44 -90 -78 -139 -145 -209 -166 -244 -196 -337 -18
-54 -34 -127 -38 -175 l-7 -82 121 0 120 0 7 63 c15 143 50 221 172 386 141
191 168 264 161 425 -11 208 -99 331 -275 386 -85 26 -234 27 -315 1z"/>
<path d="M830 255 l0 -125 130 0 130 0 0 125 0 125 -130 0 -130 0 0 -125z"/>
</g>
</svg>
