<svg width="153" height="24" viewBox="0 0 153 24" fill="none" xmlns="http://www.w3.org/2000/svg">
<path d="M14.7811 11.264C15.7091 11.568 16.4451 12.08 16.9891 12.8C17.5331 13.504 17.8051 14.384 17.8051 15.44C17.8051 16.896 17.2451 18.024 16.1251 18.824C15.0051 19.608 13.3731 20 11.2291 20H2.87709V3.2H10.7491C12.7331 3.2 14.2611 3.592 15.3331 4.376C16.4051 5.144 16.9411 6.208 16.9411 7.568C16.9411 8.4 16.7491 9.136 16.3651 9.776C15.9811 10.416 15.4531 10.912 14.7811 11.264ZM5.99709 5.648V10.28H10.4131C11.5011 10.28 12.3331 10.088 12.9091 9.704C13.5011 9.304 13.7971 8.728 13.7971 7.976C13.7971 7.208 13.5011 6.632 12.9091 6.248C12.3331 5.848 11.5011 5.648 10.4131 5.648H5.99709ZM11.0371 17.552C13.4531 17.552 14.6611 16.744 14.6611 15.128C14.6611 13.512 13.4531 12.704 11.0371 12.704H5.99709V17.552H11.0371ZM28.9109 20.24C27.2149 20.24 25.6789 19.872 24.3029 19.136C22.9429 18.384 21.8709 17.352 21.0869 16.04C20.3189 14.728 19.9349 13.248 19.9349 11.6C19.9349 9.952 20.3269 8.472 21.1109 7.16C21.8949 5.848 22.9669 4.824 24.3269 4.088C25.7029 3.336 27.2389 2.96 28.9349 2.96C30.3109 2.96 31.5669 3.2 32.7029 3.68C33.8389 4.16 34.7989 4.856 35.5829 5.768L33.5669 7.664C32.3509 6.352 30.8549 5.696 29.0789 5.696C27.9269 5.696 26.8949 5.952 25.9829 6.464C25.0709 6.96 24.3589 7.656 23.8469 8.552C23.3349 9.448 23.0789 10.464 23.0789 11.6C23.0789 12.736 23.3349 13.752 23.8469 14.648C24.3589 15.544 25.0709 16.248 25.9829 16.76C26.8949 17.256 27.9269 17.504 29.0789 17.504C30.8549 17.504 32.3509 16.84 33.5669 15.512L35.5829 17.432C34.7989 18.344 33.8309 19.04 32.6789 19.52C31.5429 20 30.2869 20.24 28.9109 20.24ZM53.5004 3.2V20H50.9324L41.6684 8.624V20H38.5724V3.2H41.1404L50.4044 14.576V3.2H53.5004ZM63.9541 10.136C65.5061 10.328 66.6901 10.856 67.5061 11.72C68.3221 12.584 68.7301 13.664 68.7301 14.96C68.7301 15.936 68.4821 16.824 67.9861 17.624C67.4901 18.424 66.7381 19.064 65.7301 19.544C64.7381 20.008 63.5221 20.24 62.0821 20.24C60.8821 20.24 59.7221 20.072 58.6021 19.736C57.4981 19.384 56.5541 18.904 55.7701 18.296L57.1141 15.872C57.7221 16.384 58.4581 16.792 59.3221 17.096C60.2021 17.384 61.1061 17.528 62.0341 17.528C63.1381 17.528 64.0021 17.304 64.6261 16.856C65.2661 16.392 65.5861 15.768 65.5861 14.984C65.5861 14.2 65.2821 13.592 64.6741 13.16C64.0821 12.712 63.1701 12.488 61.9381 12.488H60.4021V10.352L64.2181 5.816H56.5861V3.2H68.0341V5.288L63.9541 10.136ZM71.9708 3.2H79.3148C81.1068 3.2 82.6988 3.552 84.0908 4.256C85.4828 4.944 86.5628 5.928 87.3308 7.208C88.0988 8.472 88.4828 9.936 88.4828 11.6C88.4828 13.264 88.0988 14.736 87.3308 16.016C86.5628 17.28 85.4828 18.264 84.0908 18.968C82.6988 19.656 81.1068 20 79.3148 20H71.9708V3.2ZM79.1708 17.36C80.4028 17.36 81.4828 17.128 82.4108 16.664C83.3548 16.184 84.0748 15.512 84.5708 14.648C85.0828 13.768 85.3388 12.752 85.3388 11.6C85.3388 10.448 85.0828 9.44 84.5708 8.576C84.0748 7.696 83.3548 7.024 82.4108 6.56C81.4828 6.08 80.4028 5.84 79.1708 5.84H75.0908V17.36H79.1708ZM105.856 20.144C104.192 20.144 102.688 19.776 101.344 19.04C100.016 18.304 98.9682 17.288 98.2002 15.992C97.4482 14.68 97.0722 13.216 97.0722 11.6C97.0722 9.984 97.4482 8.528 98.2002 7.232C98.9682 5.92 100.024 4.896 101.368 4.16C102.712 3.424 104.216 3.056 105.88 3.056C107.128 3.056 108.28 3.264 109.336 3.68C110.392 4.096 111.288 4.704 112.024 5.504L110.896 6.632C109.584 5.304 107.928 4.64 105.928 4.64C104.6 4.64 103.392 4.944 102.304 5.552C101.216 6.16 100.36 6.992 99.7362 8.048C99.1282 9.104 98.8242 10.288 98.8242 11.6C98.8242 12.912 99.1282 14.096 99.7362 15.152C100.36 16.208 101.216 17.04 102.304 17.648C103.392 18.256 104.6 18.56 105.928 18.56C107.944 18.56 109.6 17.888 110.896 16.544L112.024 17.672C111.288 18.472 110.384 19.088 109.312 19.52C108.256 19.936 107.104 20.144 105.856 20.144ZM126.404 7.376V20H124.772V17.696C124.324 18.464 123.708 19.064 122.924 19.496C122.14 19.912 121.244 20.12 120.236 20.12C118.588 20.12 117.284 19.664 116.324 18.752C115.38 17.824 114.908 16.472 114.908 14.696V7.376H116.612V14.528C116.612 15.856 116.94 16.864 117.596 17.552C118.252 18.24 119.188 18.584 120.404 18.584C121.732 18.584 122.78 18.184 123.548 17.384C124.316 16.568 124.7 15.44 124.7 14V7.376H126.404ZM132.809 9.848C133.209 9 133.801 8.36 134.585 7.928C135.385 7.496 136.369 7.28 137.537 7.28V8.936L137.129 8.912C135.801 8.912 134.761 9.32 134.009 10.136C133.257 10.952 132.881 12.096 132.881 13.568V20H131.177V7.376H132.809V9.848ZM145.015 7.28C146.663 7.28 147.927 7.696 148.807 8.528C149.687 9.344 150.127 10.56 150.127 12.176V20H148.495V18.032C148.111 18.688 147.543 19.2 146.791 19.568C146.055 19.936 145.175 20.12 144.151 20.12C142.743 20.12 141.623 19.784 140.791 19.112C139.959 18.44 139.543 17.552 139.543 16.448C139.543 15.376 139.927 14.512 140.695 13.856C141.479 13.2 142.719 12.872 144.415 12.872H148.423V12.104C148.423 11.016 148.119 10.192 147.511 9.632C146.903 9.056 146.015 8.768 144.847 8.768C144.047 8.768 143.279 8.904 142.543 9.176C141.807 9.432 141.175 9.792 140.647 10.256L139.879 8.984C140.519 8.44 141.287 8.024 142.183 7.736C143.079 7.432 144.023 7.28 145.015 7.28ZM144.415 18.776C145.375 18.776 146.199 18.56 146.887 18.128C147.575 17.68 148.087 17.04 148.423 16.208V14.144H144.463C142.303 14.144 141.223 14.896 141.223 16.4C141.223 17.136 141.503 17.72 142.063 18.152C142.623 18.568 143.407 18.776 144.415 18.776Z" fill="white"/>
</svg>
