<?xml version="1.0" encoding="utf-8"?>
<!-- Generator: Adobe Illustrator 24.1.1, SVG Export Plug-In . SVG Version: 6.00 Build 0)  -->
<svg version="1.1" id="Capa_1" xmlns="http://www.w3.org/2000/svg" xmlns:xlink="http://www.w3.org/1999/xlink" x="0px" y="0px"
	 viewBox="0 0 391 391" style="enable-background:new 0 0 391 391;" xml:space="preserve">
<style type="text/css">
	.st0{fill:#00224C;}
</style>
<path class="st0" d="M32.8,0.4v390.3h325.5V0.7L32.8,0.4z M310,226.3v60.4l-22.2,55.4h-14.3v-24.7h12.1v-12.1h-12.1v-12.1h12.1v-12
	h-12.1v-31.5h-12v31.5H129.2v-31.5h-12v31.5h-12.1v12h12.1v12.1h-12.1v12h12.1V342h-14L81,286.6V132.4h26.7v7.5l8.3,16.6h26.4
	l8.3-16.6v-7.5h89.6v7.5l8.3,16.6H275l8.3-16.6v-7.5H310v45.7h-6v48.2L310,226.3L310,226.3z M261.6,317.4v24.7H129.2v-24.7H261.6z
	 M129.2,305.4v-12.1h132.4v12.1H129.2z M310,120.4h-26.7v-12h-16V81.8l0,0c-0.7-16.5-14.7-29.3-31.2-28.5
	C220.2,54,207.6,67,207.5,83v37.5h-24.3V82.9h-0.1c-0.9-16.7-15.1-29.4-31.8-28.5c-15.4,0.8-27.7,13.1-28.5,28.5l0,0v25.5h-15.2v12
	H81V48.8h229.1v71.6H310z M240.3,108.4v12h-20.7V82.9c0-9.9,8-17.9,17.9-17.9s17.9,8,17.9,17.9v25.5H240.3z M252.3,120.4h18.9V137
	l-3.7,7.5H256l-3.7-7.5V120.4z M134.8,108.4V84.2c0.2-10,8.4-18,18.4-17.8c9.5,0.2,17.3,7.6,17.8,17.1v36.9h-20.4v-12L134.8,108.4z
	 M138.6,120.4V137l-3.7,7.5h-11.4l-3.7-7.5v-16.6H138.6z M310,36.8H81V12.5l229.1,0.3v24H310z M346.2,378.6H44.8V12.4h24.1v276.7
	L95,354.2h201.1l26-65.1v-62.7h6v-48.2h-6V12.7h24.1V378.6z"/>
</svg>
