<svg id="Capa_1" data-name="Capa 1" xmlns="http://www.w3.org/2000/svg" viewBox="0 0 566.93 566.93"><defs><style>.cls-1{fill:#010101;}</style></defs><title>Pictograma Sigma negre</title><path class="cls-1" d="M397.12,407.78l-3.19-48.63L394.59,201l-47.82.08,0-21.31a21.11,21.11,0,0,0-42.22.08l0,21.31-42.91.08,0-21.32a21.11,21.11,0,0,0-42.21.08l0,21.31-47.81.09,1.23,157.68-3,49.06Zm-75.77-74.45,0-12,10.26,0,0-12.41-10.27,0,0-11.5-12.41,0,0,11.49-50.9.09,0-11.49-12.41,0,0,11.49-10.58,0,0,12.42,10.58,0,0,12h-6l0,12.42h6l0,10.34c-4.29-.88-7.54-1.73-9.67-2.35-14.33-31.11-20.55-72.56-23.26-102.56l22.83,0v8.21l8.24,8.84,22.39,0,8.21-8.87,0-8.21,17.17,0v8.21l8.24,8.84,22.39,0,8.21-8.87,0-8.21,23.25,0c-2.6,30-8.68,71.5-22.9,102.65-2.06.61-5.2,1.45-9.35,2.32l0-10.29h5.88l0-12.41Zm-63.32.11,0-12,50.9-.09,0,12ZM309,345.76l0,12.38a198.36,198.36,0,0,1-25.6,1.67,196.11,196.11,0,0,1-25.3-1.55l0-12.41ZM262,239.88l0,14.68-1.23,1.33-11.57,0L248,254.59l0-14.68Zm56-.1,0,14.68-1.22,1.33-11.57,0L304,254.49l0-14.68Zm-1-59.91a8.69,8.69,0,0,1,17.38,0l0,21.32-17.39,0Zm38.69,33.65c-.09,5.61-.34,14.1-1,24.54l-.05.6-24.2,0,0-11.34-13.34,0,0-13.79Zm-51.05.09,0,13.79-13.09,0,0,11.34-17.17,0,0-11.34-12.67,0,0-13.79ZM231.8,180a8.7,8.7,0,1,1,17.39,0l0,21.31-17.39,0Zm17.45,33.69,0,13.79-13.75,0,0,11.34-23.78,0,0-.59c-.7-10.42-1-18.92-1.1-24.54Zm-65.14.12,14.07,0c.38,23.35,3.58,97.79,27.77,147.88l1.1,2.28,2.39.86c.85.31,21.18,7.46,54,7.4s53.08-7.28,53.94-7.59l2.38-.87,1.1-2.29c24-50.16,26.94-124.63,27.24-148l14.06,0-.59,146.06,2.34,35.86L183,395.75l2.23-36.3Z"/></svg>