<svg xmlns="http://www.w3.org/2000/svg" viewBox="0 0 60 60"><defs><style>.cls-1{fill:#5dba47;}.cls-2{fill:#fff;stroke:#fff;stroke-miterlimit:10;stroke-width:2px;}</style></defs><title>done_green</title><g id="Layer_2" data-name="Layer 2"><g id="Layer_1-2" data-name="Layer 1"><circle class="cls-1" cx="30" cy="30" r="30"/><path class="cls-2" d="M49.63,16.84l.8,1.06A66,66,0,0,0,35.91,28.6a45.53,45.53,0,0,0-9.66,12.68l-1.17.59a22.32,22.32,0,0,0-2.62,1.51A13.15,13.15,0,0,0,21.41,41l-.61-1.17a27.24,27.24,0,0,0-3.39-5.28,4.48,4.48,0,0,0-3-1.62,6.93,6.93,0,0,1,3.77-1.51c1.48,0,3.11,1.52,4.87,4.55l1,1.64A64.55,64.55,0,0,1,35.47,25.7,65.35,65.35,0,0,1,49.63,16.84Z"/></g></g></svg>