<?xml version="1.0" encoding="UTF-8" standalone="no"?>
<!DOCTYPE svg PUBLIC "-//W3C//DTD SVG 1.1//EN" "http://www.w3.org/Graphics/SVG/1.1/DTD/svg11.dtd">
<svg version="1.1" xmlns="http://www.w3.org/2000/svg" xmlns:xlink="http://www.w3.org/1999/xlink" preserveAspectRatio="xMidYMid meet" viewBox="244.5578512396695 157.801652892562 72.09917355371897 49.61983471074382" width="68.1" height="45.62"><defs><path d="M286.51 158.8C295.38 158.8 302.57 167.02 302.57 177.15C302.57 177.53 302.56 177.91 302.54 178.29C308.95 179.83 313.66 184.99 313.66 191.12C313.66 191.12 313.66 191.12 313.66 191.12C313.66 198.47 306.89 204.42 298.55 204.42C294.76 204.42 264.45 204.42 260.66 204.42C252.32 204.42 245.56 198.47 245.56 191.12C245.56 191.12 245.56 191.12 245.56 191.12C245.56 184.71 250.7 179.37 257.54 178.1C258.16 171.16 263.29 165.74 269.53 165.74C270.9 165.74 272.21 166 273.44 166.48C276.36 161.83 281.12 158.8 286.51 158.8Z" id="l5gWJTx7F"></path></defs><g><g><use xlink:href="#l5gWJTx7F" opacity="1" fill="#666728" fill-opacity="1"></use></g></g></svg>