<svg id="Capa_1" data-name="Capa 1" xmlns="http://www.w3.org/2000/svg" viewBox="0 0 30 30"><defs><style>.cls-1{fill:#1d1d1b;}</style></defs><path d="M6.71,14.14H2.37L4,6.53,2.13,2.16H6.71Z"/><path d="M13.32,14.14H9l1.65-7.61L8.73,2.16h4.59Z"/><path d="M27.62,27.84H16.93l1.65-7.62-1.89-4.36H27.87l-1.94,4.37Z"/><path d="M13.32,15.86H2.13L4,20.22,2.37,27.84h10.7l-1.7-7.61Zm-2.81,8.35H4.91l.88-4H9.61Z"/><polygon class="cls-1" points="21.27 14.14 21.27 2.16 16.69 2.16 18.58 6.53 16.93 14.14 21.27 14.14"/><polygon class="cls-1" points="27.87 2.16 23.29 2.16 23.29 14.14 27.62 14.14 25.93 6.53 27.87 2.16"/></svg>