<?xml version="1.0" encoding="utf-8"?>
<!-- Generator: Adobe Illustrator 24.1.1, SVG Export Plug-In . SVG Version: 6.00 Build 0)  -->
<svg version="1.1" id="Capa_1" xmlns="http://www.w3.org/2000/svg" xmlns:xlink="http://www.w3.org/1999/xlink" x="0px" y="0px"
	 viewBox="0 0 326 326" style="enable-background:new 0 0 326 326;" xml:space="preserve">
<style type="text/css">
	.st0{fill:#00224C;}
</style>
<path class="st0" d="M0.3,7.5v311h325.5V7.9L0.3,7.5z M277.5,215.2v19.3L256,270h-14.9v-14.6h12.1v-12h-12.1v-12.1h12.1v-12h-12.1
	V200h-12v19.3H96.7V200h-12v19.3H72.6v12h12.1v12.1H72.6v12h12.1V270h-14l-22.2-55.4v-75.1h26.7v7.5l8.4,16.7H110l8.3-16.7v-7.5
	h89.6v7.5l8.3,16.7h26.4l8.3-16.7v-7.5h26.7v27.4h-6v48.2L277.5,215.2z M229.1,255.5V270H96.7v-14.6h132.4V255.5z M96.7,243.4v-12.1
	h132.4v12.1H96.7z M277.5,127.5h-26.7v-12.1h-16V88.8l0,0c-0.7-16.5-14.7-29.3-31.2-28.5C187.7,61,175.1,74,175,90v37.5h-24.3V90
	h-0.1c-0.9-16.7-15.1-29.5-31.7-28.6C103.4,62.2,91.1,74.5,90.3,90l0,0v25.5H75.1v12.1H48.5V56h229.1v71.5H277.5z M207.8,115.5v12.1
	h-20.7V90c0-9.9,8-17.9,17.9-17.9s17.9,8,17.9,17.9v25.5H207.8z M219.9,127.5h18.9v16.7l-3.7,7.5h-11.5l-3.7-7.5L219.9,127.5z
	 M102.4,115.5V91.4c0.2-10,8.4-18,18.4-17.9c9.5,0.1,17.3,7.6,17.8,17.1v36.9h-20.4v-12.1L102.4,115.5z M106.2,127.5v16.7l-3.7,7.5
	H91l-3.7-7.5v-16.6L106.2,127.5z M277.5,43.9h-229V19.6l229.1,0.3v24H277.5z M313.7,306.5H12.3v-287h24.1V217l26.1,65.1h200.4
	l26.7-44.3v-22.6h6V167h-6V19.9h24.1V306.5z"/>
</svg>
