<?xml version="1.0" encoding="UTF-8" standalone="no"?>
<svg
   xmlns:dc="http://purl.org/dc/elements/1.1/"
   xmlns:cc="http://creativecommons.org/ns#"
   xmlns:rdf="http://www.w3.org/1999/02/22-rdf-syntax-ns#"
   xmlns:svg="http://www.w3.org/2000/svg"
   xmlns="http://www.w3.org/2000/svg"
   xmlns:sodipodi="http://sodipodi.sourceforge.net/DTD/sodipodi-0.dtd"
   xmlns:inkscape="http://www.inkscape.org/namespaces/inkscape"
   id="Capa_2"
   data-name="Capa 2"
   viewBox="0 0 1200 1200"
   version="1.1"
   sodipodi:docname="Sigmax.svg"
   inkscape:version="0.92.4 (5da689c313, 2019-01-14)">
  <metadata
     id="metadata18">
    <rdf:RDF>
      <cc:Work
         rdf:about="">
        <dc:format>image/svg+xml</dc:format>
        <dc:type
           rdf:resource="http://purl.org/dc/dcmitype/StillImage" />
      </cc:Work>
    </rdf:RDF>
  </metadata>
  <sodipodi:namedview
     pagecolor="#ffffff"
     bordercolor="#666666"
     borderopacity="1"
     objecttolerance="10"
     gridtolerance="10"
     guidetolerance="10"
     inkscape:pageopacity="0"
     inkscape:pageshadow="2"
     inkscape:window-width="640"
     inkscape:window-height="480"
     id="namedview16"
     showgrid="false"
     inkscape:zoom="0.19666667"
     inkscape:cx="600"
     inkscape:cy="600"
     inkscape:window-x="0"
     inkscape:window-y="0"
     inkscape:window-maximized="0"
     inkscape:current-layer="Capa_2" />
  <defs
     id="defs7">
    <style
       id="style2">.cls-1{fill:none;}.cls-2{clip-path:url(#clip-path);}.cls-3{fill:#00224c;}</style>
    <clipPath
       id="clip-path">
      <rect
         class="cls-1"
         x="207.69"
         y="293.02"
         width="777.62"
         height="613.84"
         id="rect4" />
    </clipPath>
  </defs>
  <title
     id="title9">Mesa de trabajo 1 copia</title>
  <g
     class="cls-2"
     clip-path="url(#clip-path)"
     id="g13"
     transform="matrix(1.5231085,0,0,1.5231085,-312.03424,-313.83374)">
    <path
       class="cls-3"
       d="m 243.87,428.09 h 34.72 c 0.86,57.52 8.42,240.94 67.93,364.44 l 2.72,5.62 a 26.74,26.74 0 0 0 9.3,13.39 c 7.28,5.46 43.72,8.19 43.72,8.19 2.1,0.76 221.47,-1 302.4,-1 80.93,0 131.1,-17.73 133.22,-18.44 l 5.88,-2.14 2.72,-5.62 C 906,669 913.56,485.61 914.41,428.09 h 34.72 l -2.13,359.83 5.63,88.36 H 240.36 L 246,786.86 Z m 160.83,0 v 34 h -34 V 490 H 312 l -0.11,-1.46 c -1.67,-25.67 -2.35,-46.61 -2.59,-60.46 z M 361.77,345 a 21.47,21.47 0 0 1 42.93,0 v 52.5 h -42.93 z m 395.88,83.08 v 34 H 725.34 V 490 H 466.62 v -27.93 h -31.27 v -34 z m 126.06,0 c -0.26,13.82 -0.94,34.72 -2.61,60.46 L 881,490 H 821.22 V 462.07 H 788.3 v -34 z M 788.3,345 a 21.47,21.47 0 0 1 42.93,0 v 52.5 H 788.3 Z m 2.3,147.62 v 36.18 l -3,3.26 H 759 l -3,-3.26 v -36.17 z m -354.6,0 v 36.18 l -3,3.26 h -28.61 l -3,-3.26 v -36.17 z m 331.88,261 v 30.49 a 491.43,491.43 0 0 1 -63.22,4 c -21.24,0 -258.57,-1.33 -278.78,-3.93 v -30.5 z m -342,-60.06 h 342 v 29.49 h -342 z m 372.66,29.49 v -29.43 h 25.35 V 663 H 798.54 V 634.72 H 767.88 V 663 h -342 V 634.72 H 395.22 V 663 h -26.11 v 30.59 h 26.11 v 29.49 h -14.75 v 30.57 h 14.75 v 25.48 c -10.6,-2.17 -18.62,-4.29 -23.86,-5.83 -35.25,-76.69 -50.45,-178.85 -57,-252.76 h 56.37 v 20.21 L 391,562.62 h 55.3 l 20.29,-21.84 v -20.21 h 258.75 v 20.21 l 20.29,21.84 h 55.3 l 20.29,-21.84 v -20.21 h 57.41 c -6.54,73.92 -21.74,176.11 -57,252.78 -5.09,1.49 -12.85,3.56 -23.1,5.68 v -25.35 h 14.52 V 723.11 Z M 985.31,906.86 977.65,787.05 980,397.5 H 861.89 V 345 a 52.12,52.12 0 0 0 -104.24,0 v 52.5 H 435.35 V 345 a 52.12,52.12 0 0 0 -104.23,0 v 52.5 H 213 l 2.39,388.5 -7.7,120.87 z"
       id="path11"
       inkscape:connector-curvature="0"
       style="fill:#00224c" />
  </g>
</svg>
