<svg id="Capa_1" data-name="Capa 1" xmlns="http://www.w3.org/2000/svg" viewBox="0 0 566.93 566.93"><defs><style>.cls-1{fill:#010101;}</style></defs><title>Pictograma Sigmax negre</title><path class="cls-1" d="M442.43,408.15l-3.11-48.67.94-158.25H392.4V179.9a21.13,21.13,0,0,0-42.25,0v21.33H216.78V179.9a21.13,21.13,0,0,0-42.25,0v21.33H126.67l1,157.82-3.12,49.1ZM354.3,333.5H212.93v-12H354.3Zm0,12.43v10.22c-64.47,7.59-114,4.16-141.37.66V345.93Zm12.42-12.43v-12H377V309.1H366.72V297.6H354.3v11.5H212.93V297.6H200.51v11.5H189.93v12.42h10.58v12h-6v12.43h6V355c-3.76-.62-6.67-1.16-8.61-1.55-15.19-35.93-21.66-74.5-24.39-102.24h23.08v8.22l8.22,8.87h22.42l8.22-8.87v-8.22H337.06v8.22l8.22,8.87H367.7l8.22-8.87v-8.22h23.66c-4.87,56.19-19,92-23.34,102-3.2.48-6.37.94-9.52,1.36v-8.65h5.89V333.5Zm-4.15-106V213.65h38.67c-.1,5.62-.37,14.11-1.05,24.57l0,.59H375.92V227.46Zm.94,12.41v14.69l-1.23,1.33H350.7l-1.23-1.33V239.87Zm-13.36-12.41H337.06v11.35H229.45V227.46H216.78V213.65H350.15ZM166.74,238.22c-.68-10.43-1-18.94-1.05-24.57h38.66v13.81H190.59v11.35h-23.8ZM203,239.87h14v14.69l-1.23,1.33H204.23L203,254.56Zm159.57-60a8.71,8.71,0,0,1,17.41,0v21.33H362.57ZM187,179.9a8.7,8.7,0,1,1,17.4,0v21.33H187Zm-47.78,33.75h13.94c-.11,12.17.51,83.39,28.67,147.69l1.23,2.82,3,.72c2.06.5,35.39,8.36,91.72,8.36A678.63,678.63,0,0,0,381.44,365l3.15-.49,1.44-2.85c1.12-2.23,27.34-55.32,27.63-148h14.1l-.85,146.18,2.28,35.9H137.74L140,359.4Z"/></svg>