<?xml version="1.0" standalone="no"?>
<!DOCTYPE svg PUBLIC "-//W3C//DTD SVG 20010904//EN"
 "http://www.w3.org/TR/2001/REC-SVG-20010904/DTD/svg10.dtd">
<svg version="1.0" xmlns="http://www.w3.org/2000/svg"
 width="500.000000pt" height="650.000000pt" viewBox="0 0 500.000000 650.000000"
 preserveAspectRatio="xMidYMid meet">
<metadata>
Created by potrace 1.15, written by Peter Selinger 2001-2017
</metadata>
<g transform="translate(0.000000,650.000000) scale(0.100000,-0.100000)"
fill="#ffffff" stroke="none">
<path d="M0 5770 l0 -700 140 0 140 0 0 555 0 555 555 0 555 0 0 145 0 145
-695 0 -695 0 0 -700z"/>
<path d="M3600 6325 l0 -145 550 0 550 0 0 -555 0 -555 145 0 145 0 0 700 0
700 -695 0 -695 0 0 -145z"/>
<path d="M2187 5933 c-3 -5 -26 -82 -52 -173 -26 -91 -52 -170 -59 -176 -6 -6
-52 -25 -102 -42 l-91 -30 -148 114 c-81 63 -150 114 -152 114 -4 0 -469 -335
-486 -349 -4 -4 20 -83 53 -176 34 -93 59 -177 57 -187 -3 -9 -29 -51 -58 -93
l-54 -76 -190 6 -190 6 -93 -286 c-50 -158 -90 -290 -87 -295 2 -4 72 -54 155
-111 l150 -103 0 -102 0 -103 -155 -106 c-85 -59 -155 -109 -155 -112 0 -2 42
-133 93 -290 l92 -286 187 6 187 6 61 -82 c33 -45 60 -87 60 -93 0 -6 -27 -87
-60 -179 -48 -135 -58 -171 -48 -181 29 -28 469 -344 479 -344 5 0 67 44 137
98 180 140 152 130 265 93 l97 -33 15 -51 c9 -29 32 -109 52 -180 l37 -127
306 0 306 0 33 113 c18 61 42 142 53 179 l20 68 96 31 c75 23 101 28 114 20
10 -6 76 -56 147 -111 71 -55 134 -100 140 -100 8 0 411 285 490 347 2 1 -24
80 -58 175 -33 95 -61 177 -61 181 0 4 27 45 60 90 l61 82 188 -4 188 -3 91
280 c51 154 92 284 92 290 0 5 -70 58 -155 116 l-155 107 0 102 1 102 154 105
c85 58 155 109 155 114 0 6 -41 137 -92 292 l-91 282 -187 -5 -187 -6 -55 74
c-30 41 -58 80 -62 87 -5 8 17 84 55 188 36 102 58 178 53 183 -8 8 -379 278
-452 329 l-32 23 -150 -115 -149 -115 -93 31 c-51 17 -96 34 -101 37 -4 4 -30
87 -59 184 l-51 177 -303 0 c-167 0 -305 -3 -307 -7z m559 -912 c388 -98 687
-397 796 -798 18 -65 21 -106 21 -248 1 -152 -2 -180 -25 -267 -177 -656 -893
-998 -1495 -713 -123 58 -192 105 -287 195 -147 140 -247 301 -301 485 -75
257 -52 517 65 761 151 312 429 527 776 599 101 21 344 13 450 -14z"/>
<path d="M2390 4830 c-348 -43 -634 -286 -731 -622 -27 -95 -36 -271 -19 -375
27 -171 105 -326 228 -455 179 -187 408 -278 667 -265 390 20 709 286 796 664
31 133 24 329 -16 453 -76 239 -244 428 -472 532 -125 56 -316 85 -453 68z
m202 -586 c60 -19 126 -78 158 -140 21 -41 25 -63 25 -134 0 -103 -19 -145
-96 -214 -122 -109 -296 -97 -408 30 -147 167 -51 431 172 473 48 9 82 6 149
-15z"/>
<path d="M0 2175 l0 -695 695 0 695 0 0 140 0 140 -555 0 -555 0 0 555 0 555
-140 0 -140 0 0 -695z"/>
<path d="M4700 2315 l0 -555 -550 0 -550 0 0 -140 0 -140 695 0 695 0 0 695 0
695 -145 0 -145 0 0 -555z"/>
<path d="M1355 936 c-77 -19 -169 -73 -225 -132 -132 -140 -163 -361 -75 -540
112 -229 403 -321 643 -203 62 30 172 129 172 153 0 6 -43 41 -94 78 l-94 66
-33 -34 c-99 -102 -252 -99 -329 8 -38 52 -54 109 -47 174 12 122 96 204 207
204 63 0 106 -18 158 -65 l41 -36 93 72 c51 40 95 74 97 76 3 2 -19 28 -49 58
-61 62 -142 108 -218 124 -68 14 -183 13 -247 -3z"/>
<path d="M0 479 l0 -450 298 3 c327 4 351 8 425 69 56 46 80 101 80 179 -1
102 -34 159 -116 202 l-39 19 41 36 c57 48 74 85 75 163 0 78 -27 136 -85 176
-71 49 -110 54 -406 54 l-273 0 0 -451z m484 220 c33 -26 34 -62 1 -94 -23
-23 -31 -25 -130 -25 l-105 0 0 70 0 70 104 0 c89 0 107 -3 130 -21z m37 -338
c37 -37 37 -55 0 -92 -29 -29 -30 -29 -150 -29 l-121 0 0 75 0 75 121 0 c120
0 121 0 150 -29z"/>
<path d="M2090 480 l0 -450 130 0 130 0 2 235 3 235 183 -235 184 -235 114 0
114 0 0 450 0 450 -130 0 -130 0 -2 -222 -3 -222 -173 222 -173 222 -125 0
-124 0 0 -450z"/>
<path d="M3230 825 l0 -105 163 0 162 -1 -94 -87 c-103 -96 -97 -80 -70 -183
l9 -37 88 -4 c100 -5 148 -25 158 -65 11 -42 -7 -76 -50 -97 -35 -17 -46 -18
-95 -8 -30 6 -72 24 -94 39 -93 65 -78 67 -163 -19 -52 -52 -75 -81 -71 -92
11 -28 126 -104 194 -128 56 -19 89 -23 183 -23 105 0 120 2 175 28 122 57
175 139 175 270 0 57 -5 88 -19 115 -27 54 -77 99 -130 118 -25 10 -50 20 -54
24 -4 4 37 45 92 91 l100 84 0 93 1 92 -330 0 -330 0 0 -105z"/>
<path d="M4140 480 l0 -450 223 0 c243 0 306 9 404 57 87 43 147 103 190 191
l38 76 0 130 c0 126 -1 133 -32 198 -39 82 -102 147 -182 188 -102 51 -161 60
-413 60 l-228 0 0 -450z m453 208 c55 -17 122 -82 136 -133 32 -116 -7 -218
-103 -267 -30 -16 -65 -23 -133 -26 l-93 -4 0 221 0 221 76 0 c42 0 95 -6 117
-12z"/>
</g>
</svg>
